<svg width="106" height="30" viewBox="0 0 106 30" fill="none" xmlns="http://www.w3.org/2000/svg">
<rect x="1" y="1" width="104" height="28" rx="14" fill="white"/>
<path d="M7.14132 14.3834L10.5497 10.975C10.5887 10.9321 10.6363 10.8977 10.6894 10.8742C10.7425 10.8508 10.7999 10.8386 10.858 10.8386C10.916 10.8386 10.9735 10.8508 11.0266 10.8742C11.0797 10.8977 11.1273 10.9321 11.1663 10.975C11.2093 11.0141 11.2436 11.0617 11.2671 11.1148C11.2906 11.1679 11.3027 11.2253 11.3027 11.2834C11.3027 11.3414 11.2906 11.3989 11.2671 11.452C11.2436 11.505 11.2093 11.5527 11.1663 11.5917L7.74965 15L11.1663 18.4084C11.2093 18.4474 11.2436 18.495 11.2671 18.5481C11.2906 18.6012 11.3027 18.6586 11.3027 18.7167C11.3027 18.7748 11.2906 18.8322 11.2671 18.8853C11.2436 18.9384 11.2093 18.986 11.1663 19.025C11.1273 19.068 11.0797 19.1023 11.0266 19.1258C10.9735 19.1493 10.916 19.1615 10.858 19.1615C10.7999 19.1615 10.7425 19.1493 10.6894 19.1258C10.6363 19.1023 10.5887 19.068 10.5497 19.025L7.14132 15.6167L6.83299 15.3084C6.79002 15.2693 6.75569 15.2217 6.7322 15.1686C6.70871 15.1155 6.69657 15.0581 6.69657 15C6.69657 14.942 6.70871 14.8846 6.7322 14.8315C6.75569 14.7784 6.79002 14.7308 6.83299 14.6917L7.14132 14.3834Z" fill="#3B3B3B"/>
<path d="M21.9971 16.1409V17H21.8289C21.3774 17 20.9607 16.8121 20.5789 16.4364C20.3516 16.7424 19.9531 16.9364 19.3834 17.0182C19.2774 17.0333 19.1653 17.0455 19.0471 17.0545C18.9289 17.0636 18.8062 17.0682 18.6789 17.0682C18.5243 17.0682 18.3683 17.0606 18.2107 17.0455C18.0531 17.0333 17.8986 17.0136 17.7471 16.9864C17.5986 16.9561 17.4546 16.9182 17.3153 16.8727C17.1759 16.8242 17.0501 16.7682 16.938 16.7045L16.5653 16.4864L16.9925 15.7364L17.3698 15.9545C17.4759 16.0152 17.6046 16.0652 17.7562 16.1045C17.9107 16.1409 18.0743 16.1667 18.2471 16.1818C18.3774 16.1939 18.5077 16.2 18.638 16.2C18.6834 16.2 18.7607 16.2 18.8698 16.2C18.9789 16.197 19.1092 16.1848 19.2607 16.1636C19.4365 16.1364 19.5804 16.0985 19.6925 16.05C19.8077 15.9985 19.8804 15.9409 19.9107 15.8773C19.938 15.847 19.9516 15.8091 19.9516 15.7636C19.9516 15.7333 19.941 15.6848 19.9198 15.6182C19.8986 15.5485 19.8516 15.4576 19.7789 15.3455L18.0743 12.75L18.7971 12.2773L20.5607 14.9682C20.6516 15.0985 20.7425 15.2333 20.8334 15.3727C20.9274 15.5091 21.0259 15.6348 21.1289 15.75C21.2319 15.8621 21.3395 15.9561 21.4516 16.0318C21.5668 16.1045 21.6925 16.1409 21.8289 16.1409H21.9971ZM26.7741 16.1409V17H25.9786C25.7029 17 25.4589 16.9606 25.2468 16.8818C25.0377 16.803 24.8695 16.6848 24.7423 16.5273C24.4271 16.8424 23.9605 17 23.3423 17H21.7968V16.1409H23.3423C23.5605 16.1409 23.7332 16.1197 23.8605 16.0773C23.9877 16.0318 24.0832 15.9773 24.1468 15.9136C24.2135 15.847 24.2559 15.7742 24.2741 15.6955C24.2953 15.6136 24.3059 15.5364 24.3059 15.4636V13.9273H25.1605V15.4318C25.1605 15.5439 25.1771 15.6394 25.2105 15.7182C25.2468 15.797 25.2908 15.8636 25.3423 15.9182C25.3938 15.9697 25.4514 16.0106 25.515 16.0409C25.5817 16.0712 25.6453 16.0939 25.7059 16.1091C25.7665 16.1242 25.8211 16.1333 25.8695 16.1364C25.918 16.1394 25.9544 16.1409 25.9786 16.1409H26.7741ZM25.5195 18.7591L24.7832 19.4955L24.0741 18.7591L24.7923 18.0318L25.5195 18.7591ZM23.7786 18.7682L23.0423 19.5045L22.3332 18.7682L23.0514 18.0409L23.7786 18.7682ZM34.5624 17C34.2715 17 34.014 16.9591 33.7897 16.8773C33.5655 16.7924 33.3776 16.6667 33.2261 16.5H33.2215L33.1534 16.5727C33.0049 16.7152 32.8367 16.8227 32.6488 16.8955C32.4609 16.9652 32.2594 17 32.0443 17C31.4776 17 31.0382 16.8364 30.7261 16.5091C30.5746 16.6697 30.4003 16.7909 30.2034 16.8727C30.0064 16.9515 29.8064 16.9939 29.6034 17H29.5443C29.0079 16.9909 28.5897 16.8333 28.2897 16.5273C28.2715 16.5515 28.2503 16.5727 28.2261 16.5909C27.92 16.8636 27.4882 17 26.9306 17H26.5761V16.1409H26.9306C27.1246 16.1409 27.2806 16.1227 27.3988 16.0864C27.52 16.05 27.614 15.997 27.6806 15.9273C27.7473 15.8545 27.7912 15.7682 27.8124 15.6682C27.8367 15.5652 27.8488 15.4485 27.8488 15.3182V13.9318H28.7079V15.2955C28.7079 15.5894 28.7791 15.803 28.9215 15.9364C29.064 16.0697 29.2867 16.1379 29.5897 16.1409C29.6443 16.1379 29.7109 16.1273 29.7897 16.1091C29.8715 16.0909 29.9488 16.053 30.0215 15.9955C30.0973 15.9379 30.1624 15.8561 30.217 15.75C30.2715 15.6409 30.2988 15.497 30.2988 15.3182V13.9318H31.1534V15.2955C31.1534 15.5894 31.2231 15.8045 31.3624 15.9409C31.5049 16.0742 31.7321 16.1409 32.0443 16.1409C32.1321 16.1409 32.22 16.1273 32.3079 16.1C32.3958 16.0727 32.4746 16.0273 32.5443 15.9636C32.614 15.9 32.6715 15.8182 32.717 15.7182C32.7624 15.6152 32.7882 15.4894 32.7943 15.3409V13.9318H33.6534V15.3409C33.6594 15.6197 33.7367 15.8227 33.8852 15.95C34.0337 16.0773 34.2594 16.1409 34.5624 16.1409H34.8397V17H34.5624ZM31.3443 10.7955L30.6988 11.4273L30.0624 10.7955L30.717 10.1455L31.3443 10.7955ZM31.567 12.85L30.8488 12.1227L31.5579 11.3864L32.2943 12.1227L31.567 12.85ZM29.8261 12.8409L29.1079 12.1136L29.817 11.3773L30.5534 12.1136L29.8261 12.8409ZM40.4711 17H40.4029C40.1332 17 39.8923 16.9742 39.6802 16.9227C39.4711 16.8712 39.2802 16.7985 39.1075 16.7045C38.9347 16.6076 38.7757 16.4924 38.6302 16.3591C38.4847 16.2227 38.3423 16.0712 38.2029 15.9045C38.1969 15.9197 38.1908 15.9333 38.1847 15.9455C38.1787 15.9576 38.1726 15.9712 38.1666 15.9864C38.0817 16.153 37.962 16.303 37.8075 16.4364C37.656 16.5697 37.4757 16.6803 37.2666 16.7682C37.0878 16.847 36.8893 16.9061 36.6711 16.9455C36.4529 16.9818 36.2257 17 35.9893 17H34.6529V16.1409H35.9893C36.1651 16.1409 36.3287 16.1288 36.4802 16.1045C36.6347 16.0773 36.7726 16.0409 36.8938 15.9955C37.0181 15.947 37.1226 15.8894 37.2075 15.8227C37.2954 15.7561 37.3605 15.6818 37.4029 15.6C37.4423 15.5182 37.462 15.4258 37.462 15.3227C37.462 15.2409 37.4408 15.1242 37.3984 14.9727C37.356 14.8182 37.2393 14.6121 37.0484 14.3545C36.7787 13.9758 36.5499 13.6545 36.362 13.3909C36.1741 13.1273 36.0211 12.9121 35.9029 12.7455C35.7635 12.5515 35.6499 12.3924 35.562 12.2682L35.7302 11.6318L39.9029 9.70455L40.2575 10.4909L36.5347 12.1955L38.3393 14.7C38.5241 14.9485 38.6893 15.1636 38.8347 15.3455C38.9802 15.5242 39.1272 15.6727 39.2757 15.7909C39.4272 15.9091 39.5908 15.997 39.7666 16.0545C39.9454 16.1121 40.1575 16.1409 40.4029 16.1409H40.4711V17ZM42.7325 13.3C42.7385 13.3182 42.7507 13.3667 42.7688 13.4455C42.787 13.5242 42.8067 13.6227 42.8279 13.7409C42.8522 13.8561 42.8779 13.9848 42.9052 14.1273C42.9325 14.2667 42.9567 14.4091 42.9779 14.5545C42.9991 14.697 43.0173 14.8348 43.0325 14.9682C43.0476 15.1015 43.0552 15.2182 43.0552 15.3182C43.0552 15.6091 43.0067 15.8606 42.9097 16.0727C42.8158 16.2818 42.6916 16.4561 42.537 16.5955C42.3855 16.7318 42.2143 16.8333 42.0234 16.9C41.8325 16.9667 41.6401 17 41.4461 17H40.287V16.1409H41.4461C41.4916 16.1409 41.5552 16.1348 41.637 16.1227C41.7219 16.1076 41.8052 16.0727 41.887 16.0182C41.9719 15.9636 42.0446 15.8818 42.1052 15.7727C42.1688 15.6636 42.2007 15.5121 42.2007 15.3182C42.2007 15.2515 42.1946 15.1682 42.1825 15.0682C42.1734 14.9652 42.1597 14.8561 42.1416 14.7409C42.1264 14.6227 42.1082 14.503 42.087 14.3818C42.0658 14.2576 42.0446 14.1409 42.0234 14.0318C42.0022 13.9227 41.9825 13.8258 41.9643 13.7409C41.9461 13.6561 41.931 13.5924 41.9188 13.55L42.7325 13.3ZM41.1597 18.65L41.9325 17.8682L42.7234 18.6591L41.9416 19.4409L41.1597 18.65ZM49.2193 19.5091C48.8133 19.5091 48.4436 19.4197 48.1102 19.2409C47.7799 19.0652 47.5118 18.8167 47.3057 18.4955C47.2239 18.3652 47.1451 18.1939 47.0693 17.9818C46.9936 17.7697 46.9496 17.5136 46.9375 17.2136C46.9345 17.1682 46.933 17.1212 46.933 17.0727C46.933 16.8091 46.9693 16.4985 47.0421 16.1409C47.1178 15.7833 47.2724 15.3621 47.5057 14.8773L48.2784 15.2455C48.136 15.5364 48.0239 15.8152 47.9421 16.0818C47.8633 16.3485 47.8148 16.6 47.7966 16.8364C47.7905 16.9182 47.7875 16.9985 47.7875 17.0773C47.7875 17.2227 47.8027 17.3788 47.833 17.5455C47.8633 17.7121 47.9284 17.8758 48.0284 18.0364C48.1557 18.2303 48.3224 18.3803 48.5284 18.4864C48.7375 18.5955 48.9678 18.65 49.2193 18.65H49.5421C49.8905 18.65 50.1739 18.6136 50.3921 18.5409C50.6102 18.4682 50.7815 18.3652 50.9057 18.2318C51.0299 18.0985 51.1148 17.9364 51.1602 17.7455C51.2057 17.5576 51.2284 17.347 51.2284 17.1136V10.5136H52.0739V15.3455C52.0769 15.4667 52.0981 15.5758 52.1375 15.6727C52.1799 15.7697 52.2375 15.853 52.3102 15.9227C52.383 15.9924 52.4678 16.047 52.5648 16.0864C52.6618 16.1227 52.7693 16.1409 52.8875 16.1409H53.0375V17H52.8875C52.5875 17 52.3163 16.9333 52.0739 16.8V17.1136C52.0739 18.7106 51.2299 19.5091 49.5421 19.5091H49.2193ZM56.0145 13.3C56.0205 13.3182 56.0327 13.3667 56.0508 13.4455C56.069 13.5242 56.0887 13.6227 56.1099 13.7409C56.1342 13.8561 56.1599 13.9848 56.1872 14.1273C56.2145 14.2667 56.2387 14.4091 56.2599 14.5545C56.2811 14.697 56.2993 14.8348 56.3145 14.9682C56.3296 15.1015 56.3372 15.2182 56.3372 15.3182C56.3372 15.6091 56.2887 15.8606 56.1917 16.0727C56.0978 16.2818 55.9736 16.4561 55.819 16.5955C55.6675 16.7318 55.4963 16.8333 55.3054 16.9C55.1145 16.9667 54.922 17 54.7281 17H52.8463V16.1409H54.7281C54.7736 16.1409 54.8372 16.1348 54.919 16.1227C55.0039 16.1076 55.0872 16.0727 55.169 16.0182C55.2539 15.9636 55.3266 15.8818 55.3872 15.7727C55.4508 15.6636 55.4827 15.5121 55.4827 15.3182C55.4827 15.2515 55.4766 15.1682 55.4645 15.0682C55.4554 14.9652 55.4417 14.8561 55.4236 14.7409C55.4084 14.6227 55.3902 14.503 55.369 14.3818C55.3478 14.2576 55.3266 14.1409 55.3054 14.0318C55.2842 13.9227 55.2645 13.8258 55.2463 13.7409C55.2281 13.6561 55.213 13.5924 55.2008 13.55L56.0145 13.3ZM56.3963 18.7318L55.6599 19.4682L54.9508 18.7318L55.669 18.0045L56.3963 18.7318ZM54.6554 18.7409L53.919 19.4773L53.2099 18.7409L53.9281 18.0136L54.6554 18.7409ZM62.6611 16.1409V17H62.493C62.0414 17 61.6248 16.8121 61.243 16.4364C61.0157 16.7424 60.6172 16.9364 60.0475 17.0182C59.9414 17.0333 59.8293 17.0455 59.7111 17.0545C59.593 17.0636 59.4702 17.0682 59.343 17.0682C59.1884 17.0682 59.0323 17.0606 58.8748 17.0455C58.7172 17.0333 58.5626 17.0136 58.4111 16.9864C58.2626 16.9561 58.1187 16.9182 57.9793 16.8727C57.8399 16.8242 57.7142 16.7682 57.602 16.7045L57.2293 16.4864L57.6566 15.7364L58.0339 15.9545C58.1399 16.0152 58.2687 16.0652 58.4202 16.1045C58.5748 16.1409 58.7384 16.1667 58.9111 16.1818C59.0414 16.1939 59.1717 16.2 59.302 16.2C59.3475 16.2 59.4248 16.2 59.5339 16.2C59.643 16.197 59.7733 16.1848 59.9248 16.1636C60.1005 16.1364 60.2445 16.0985 60.3566 16.05C60.4717 15.9985 60.5445 15.9409 60.5748 15.8773C60.602 15.847 60.6157 15.8091 60.6157 15.7636C60.6157 15.7333 60.6051 15.6848 60.5839 15.6182C60.5626 15.5485 60.5157 15.4576 60.443 15.3455L58.7384 12.75L59.4611 12.2773L61.2248 14.9682C61.3157 15.0985 61.4066 15.2333 61.4975 15.3727C61.5914 15.5091 61.6899 15.6348 61.793 15.75C61.896 15.8621 62.0036 15.9561 62.1157 16.0318C62.2308 16.1045 62.3566 16.1409 62.493 16.1409H62.6611ZM66.3382 16.1409V17H65.9836C65.7079 17 65.4639 16.9606 65.2518 16.8818C65.0427 16.803 64.8745 16.6848 64.7472 16.5273C64.4321 16.8424 63.9654 17 63.3472 17H62.4745V16.1409H63.3472C63.5654 16.1409 63.7382 16.1197 63.8654 16.0773C63.9927 16.0318 64.0882 15.9773 64.1518 15.9136C64.2185 15.847 64.2609 15.7742 64.2791 15.6955C64.3003 15.6136 64.3109 15.5364 64.3109 15.4636V13.9273H65.1654V15.4318C65.1654 15.5439 65.1821 15.6394 65.2154 15.7182C65.2488 15.797 65.2912 15.8636 65.3427 15.9182C65.3972 15.9697 65.4563 16.0106 65.52 16.0409C65.5866 16.0712 65.6503 16.0939 65.7109 16.1091C65.7715 16.1242 65.826 16.1333 65.8745 16.1364C65.923 16.1394 65.9594 16.1409 65.9836 16.1409H66.3382ZM63.4972 18.7L64.27 17.9182L65.0609 18.7091L64.2791 19.4909L63.4972 18.7ZM69.3153 13.3C69.3213 13.3182 69.3334 13.3667 69.3516 13.4455C69.3698 13.5242 69.3895 13.6227 69.4107 13.7409C69.4349 13.8561 69.4607 13.9848 69.488 14.1273C69.5153 14.2667 69.5395 14.4091 69.5607 14.5545C69.5819 14.697 69.6001 14.8348 69.6153 14.9682C69.6304 15.1015 69.638 15.2182 69.638 15.3182C69.638 15.6091 69.5895 15.8606 69.4925 16.0727C69.3986 16.2818 69.2743 16.4561 69.1198 16.5955C68.9683 16.7318 68.7971 16.8333 68.6062 16.9C68.4153 16.9667 68.2228 17 68.0289 17H66.1471V16.1409H68.0289C68.0743 16.1409 68.138 16.1348 68.2198 16.1227C68.3046 16.1076 68.388 16.0727 68.4698 16.0182C68.5546 15.9636 68.6274 15.8818 68.688 15.7727C68.7516 15.6636 68.7834 15.5121 68.7834 15.3182C68.7834 15.2515 68.7774 15.1682 68.7653 15.0682C68.7562 14.9652 68.7425 14.8561 68.7243 14.7409C68.7092 14.6227 68.691 14.503 68.6698 14.3818C68.6486 14.2576 68.6274 14.1409 68.6062 14.0318C68.5849 13.9227 68.5653 13.8258 68.5471 13.7409C68.5289 13.6561 68.5137 13.5924 68.5016 13.55L69.3153 13.3ZM69.2334 12.3364L68.5153 11.6091L69.2243 10.8727L69.9607 11.6091L69.2334 12.3364ZM67.4925 12.3273L66.7743 11.6L67.4834 10.8636L68.2198 11.6L67.4925 12.3273ZM77.6169 18.6409C77.9199 18.6409 78.182 18.6136 78.4032 18.5591C78.6275 18.5076 78.8123 18.4242 78.9578 18.3091C79.1032 18.1939 79.2108 18.0439 79.2805 17.8591C79.3502 17.6742 79.3851 17.45 79.3851 17.1864C79.0942 17.1106 78.8093 17.0348 78.5305 16.9591C78.4123 16.9288 78.2881 16.897 78.1578 16.8636C78.0275 16.8273 77.8972 16.7924 77.7669 16.7591C77.6396 16.7227 77.5139 16.6894 77.3896 16.6591C77.2684 16.6288 77.1563 16.6 77.0532 16.5727C76.9199 16.2485 76.8532 15.9288 76.8532 15.6136C76.8532 15.5955 76.8548 15.4985 76.8578 15.3227C76.8639 15.147 76.929 14.9152 77.0532 14.6273C77.1775 14.3394 77.3532 14.0818 77.5805 13.8545C77.8078 13.6242 78.0699 13.4409 78.3669 13.3045C78.6639 13.1682 78.9881 13.0848 79.3396 13.0545C79.4093 13.0485 79.4805 13.0455 79.5532 13.0455C79.8381 13.0455 80.1305 13.0894 80.4305 13.1773L80.2169 14C80.0108 13.9364 79.8017 13.9061 79.5896 13.9091C79.3775 13.9091 79.1729 13.9394 78.976 14C78.782 14.0576 78.6017 14.1424 78.4351 14.2545C78.2684 14.3667 78.126 14.5015 78.0078 14.6591C77.8926 14.8136 77.8093 14.9879 77.7578 15.1818C77.7214 15.3091 77.7032 15.4409 77.7032 15.5773C77.7032 15.6561 77.7093 15.7348 77.7214 15.8136L79.4623 16.2455C79.7048 16.3121 79.8866 16.4212 80.0078 16.5727C80.129 16.7242 80.1896 16.9091 80.1896 17.1273C80.1896 17.5242 80.1426 17.8712 80.0487 18.1682C79.9548 18.4682 79.8048 18.7167 79.5987 18.9136C79.3926 19.1106 79.126 19.2591 78.7987 19.3591C78.4745 19.4591 78.0805 19.5091 77.6169 19.5091H76.6123C76.382 19.5091 76.1593 19.4803 75.9442 19.4227C75.729 19.3652 75.526 19.2848 75.3351 19.1818C75.1442 19.0788 74.9684 18.9545 74.8078 18.8091C74.6472 18.6636 74.5063 18.503 74.3851 18.3273C74.2426 18.097 74.1351 17.8439 74.0623 17.5682C73.9896 17.2924 73.9532 17.0015 73.9532 16.6955C73.9532 16.3167 74.0123 15.9091 74.1305 15.4727C74.2517 15.0333 74.4275 14.5697 74.6578 14.0818C74.7942 14.1455 74.9214 14.2076 75.0396 14.2682C75.1578 14.3258 75.282 14.3864 75.4123 14.45C75.0123 15.3045 74.8123 16.0455 74.8123 16.6727C74.8123 16.897 74.8396 17.1106 74.8942 17.3136C74.9487 17.5167 75.0245 17.7 75.1214 17.8636C75.276 18.1061 75.4851 18.2955 75.7487 18.4318C76.0123 18.5712 76.3002 18.6409 76.6123 18.6409H77.6169ZM82.7418 16.9955H81.8827V10.5136H82.7418V16.9955ZM86.8211 17H86.6257C86.3348 17 86.0666 16.9424 85.8211 16.8273C85.8211 17.2515 85.7621 17.6303 85.6439 17.9636C85.5257 18.297 85.353 18.5788 85.1257 18.8091C84.8984 19.0424 84.6181 19.2197 84.2848 19.3409C83.9545 19.4621 83.5742 19.5227 83.1439 19.5227H82.5166V18.6636H83.1439C83.456 18.6636 83.7257 18.6258 83.953 18.55C84.1833 18.4773 84.3727 18.3636 84.5211 18.2091C84.6727 18.0545 84.7833 17.8576 84.853 17.6182C84.9257 17.3788 84.9621 17.0939 84.9621 16.7636V13.9273H85.8211V15.4318C85.8211 15.6015 85.856 15.7348 85.9257 15.8318C85.9984 15.9258 86.0818 15.9955 86.1757 16.0409C86.2696 16.0864 86.359 16.1152 86.4439 16.1273C86.5318 16.1364 86.5924 16.1409 86.6257 16.1409H86.8211V17ZM89.0801 13.3C89.0862 13.3182 89.0983 13.3667 89.1165 13.4455C89.1347 13.5242 89.1544 13.6227 89.1756 13.7409C89.1998 13.8561 89.2256 13.9848 89.2529 14.1273C89.2801 14.2667 89.3044 14.4091 89.3256 14.5545C89.3468 14.697 89.365 14.8348 89.3801 14.9682C89.3953 15.1015 89.4029 15.2182 89.4029 15.3182C89.4029 15.6091 89.3544 15.8606 89.2574 16.0727C89.1635 16.2818 89.0392 16.4561 88.8847 16.5955C88.7332 16.7318 88.5619 16.8333 88.371 16.9C88.1801 16.9667 87.9877 17 87.7938 17H86.6347V16.1409H87.7938C87.8392 16.1409 87.9029 16.1348 87.9847 16.1227C88.0695 16.1076 88.1529 16.0727 88.2347 16.0182C88.3195 15.9636 88.3923 15.8818 88.4529 15.7727C88.5165 15.6636 88.5483 15.5121 88.5483 15.3182C88.5483 15.2515 88.5423 15.1682 88.5301 15.0682C88.521 14.9652 88.5074 14.8561 88.4892 14.7409C88.4741 14.6227 88.4559 14.503 88.4347 14.3818C88.4135 14.2576 88.3923 14.1409 88.371 14.0318C88.3498 13.9227 88.3301 13.8258 88.3119 13.7409C88.2938 13.6561 88.2786 13.5924 88.2665 13.55L89.0801 13.3ZM87.5074 18.65L88.2801 17.8682L89.071 18.6591L88.2892 19.4409L87.5074 18.65Z" fill="#3B3B3B"/>
<path d="M98.8587 15.6166L95.4503 19.025C95.4113 19.0679 95.3637 19.1023 95.3106 19.1258C95.2575 19.1492 95.2001 19.1614 95.142 19.1614C95.084 19.1614 95.0265 19.1492 94.9734 19.1258C94.9203 19.1023 94.8727 19.0679 94.8337 19.025C94.7907 18.9859 94.7564 18.9383 94.7329 18.8852C94.7094 18.8321 94.6973 18.7747 94.6973 18.7166C94.6973 18.6586 94.7094 18.6011 94.7329 18.548C94.7564 18.495 94.7907 18.4473 94.8337 18.4083L98.2503 15L94.8337 11.5916C94.7907 11.5526 94.7564 11.505 94.7329 11.4519C94.7094 11.3988 94.6973 11.3414 94.6973 11.2833C94.6973 11.2252 94.7094 11.1678 94.7329 11.1147C94.7564 11.0616 94.7907 11.014 94.8337 10.975C94.8727 10.932 94.9203 10.8977 94.9734 10.8742C95.0265 10.8507 95.084 10.8385 95.142 10.8385C95.2001 10.8385 95.2575 10.8507 95.3106 10.8742C95.3637 10.8977 95.4113 10.932 95.4503 10.975L98.8587 14.3833L99.167 14.6916C99.21 14.7307 99.2443 14.7783 99.2678 14.8314C99.2913 14.8845 99.3034 14.9419 99.3034 15C99.3034 15.058 99.2913 15.1154 99.2678 15.1685C99.2443 15.2216 99.21 15.2692 99.167 15.3083L98.8587 15.6166Z" fill="#3B3B3B"/>
<rect x="1" y="1" width="104" height="28" rx="14" stroke="#808080" stroke-width="2"/>
</svg>
